<svg version="1.2" xmlns="http://www.w3.org/2000/svg" viewBox="0 0 1024 1024" width="1000" height="1000"><style>.a{fill:#c21f22}</style><path fill-rule="evenodd" class="a" d="m536 43.6c3 0.3 9.3 0.9 14 1.4 4.7 0.5 11.2 1.2 14.5 1.5 9.8 1.1 39.9 7.1 57 11.5 51.4 13.1 101.3 35.8 148.7 67.4 5.7 3.8 12.6 8.9 15.4 11.3 2.9 2.4 7 5.6 9.2 7.1 8.9 6.1 26.4 21.5 41.2 36.2 41.3 41.2 70 80.6 93.5 128.8 4.7 9.4 8.5 17.5 8.5 17.8 0 0.4 1.3 3.2 2.9 6.3 9.4 18.6 23.9 67.4 29.6 99.7 6.3 36.3 8.7 74.7 6.6 106.4-1.4 20.2-3.6 42.5-5 49-0.6 2.5-1.9 9.7-3.1 16-1.2 6.3-3.7 17.6-5.7 25-1.9 7.4-3.9 15.3-4.4 17.5-3 12.3-12 37.8-19.1 54-9.1 20.7-25.5 52.5-27 52.5-0.5 0-3-1.4-5.6-3.1-2.6-1.7-11.2-7.2-19.2-12.1-8-5-15.7-10.1-17.2-11.2-1.4-1.2-5.9-4.4-9.9-7.1-4-2.8-9.4-6.8-11.9-9-2.5-2.2-6.8-5.8-9.4-8-17.4-14.4-46.4-43.6-62.2-62.5-13-15.5-44.4-58.4-44.4-60.6 0-0.3-1.4-2.2-3.1-4.2-1.7-2-3.8-5.2-4.6-7.1-0.8-2-2.1-4.3-2.8-5.1-4.8-5.5-39-71.5-45.1-87.1-1.8-4.5-10-23.2-13.4-30.4-0.6-1.1-1.7-4-2.5-6.5-2.2-6.2-10.9-22.4-14.8-27.3-4.2-5.4-10.3-11.5-14.8-14.9-6-4.5-19-10.6-25.4-11.9-4.5-0.9-32.1-1.2-110-1.3l-104-0.1-8 2.8c-11.6 4.1-20.9 10-29.3 18.6-6 6.2-8.5 9.8-13.4 19.6-3.4 6.6-7.1 14.7-8.4 18.1-2 5.4-8.3 20-13.4 30.9-1 2.2-3 6.7-4.3 10-1.4 3.3-6.8 14.7-12.1 25.3-5.3 10.5-9.6 19.4-9.6 19.6 0 0.2-2.3 4.6-5.1 9.7-10.5 19.1-28.5 48.1-36.9 59.4-2.5 3.4-8.6 11.6-13.5 18.4-11.8 16.1-17.9 23.5-34.6 41.6-15.5 16.9-34.1 34.7-50.6 48.6-16.3 13.8-18.9 15.8-23.1 18.2-2 1.2-6.4 4.1-9.7 6.5-4.9 3.5-27.7 18.7-32.2 21.5-2.3 1.4-21.1-35.9-31.6-62.8-12.2-31.3-20.1-62-28.2-109-2.6-15.6-4.8-55-4.1-75 1.7-46.3 5.4-73.1 15.3-109.5 2.5-9.1 5.2-19 6-22 2.4-8.8 8.9-26.8 12.8-35.5 2-4.4 4.1-9.4 4.7-11 1.3-3.4 18.8-38.5 21.5-43 16.8-28.2 28.6-45.5 40.8-60 2.8-3.3 6.4-7.8 8-10 1.6-2.2 4.2-5.4 5.9-7 1.7-1.7 6.3-6.6 10.1-11 27.2-30.9 65.8-62.6 105.5-86.5 15.6-9.4 44-23.7 61-30.7 4.7-1.9 9.9-4.1 11.7-4.9 11.4-5.2 47.6-15.7 76.9-22.3 17.5-4 53-8.2 79.4-9.5 8.7-0.4 43.9 0.3 52 1zm215.5 157.5c-20.2 2.7-38 11.4-51.5 25.3-17.3 17.7-24.3 39.4-19.1 59.4 1.2 4.5 3.4 10.3 5 12.9 5.3 8.7-0.6 8 81.2 8.4 58.7 0.3 73 0.1 75-0.9 3.2-1.7 8.2-9.2 10.3-15.5 2.3-6.8 3.2-21.2 1.7-28.7-2.1-10.4-7.6-22-14.3-30-16.5-19.5-40.5-30.6-68.8-31.5-6.9-0.2-15.6 0-19.5 0.6zm-167.8 405.8c4.6 2.2 8.7 6.1 25.2 24.1 12.5 13.6 61.7 63 66.8 67 1.7 1.4 7.3 5.9 12.5 10.1 13.1 10.6 34.5 25.9 36.1 25.9 0.2 0 4.4 2.3 9.3 5.1 40.6 23.4 86.8 35.1 143.4 36.3 11.8 0.3 21.6 0.5 21.8 0.5 0.2 0.1-0.6 1.3-1.8 2.8-1.2 1.6-5.4 7.4-9.4 12.9-8.4 12.1-17.7 24.2-22.7 29.8-37.2 41.7-59.7 62.2-96.4 87.8-18.6 12.9-62.4 37.2-76.7 42.6-2.9 1.1-7.9 3.2-11 4.6-18.5 8.5-61.3 21.8-83.8 26-4.6 0.9-10.1 2.1-12.1 2.6-8.8 2.4-44.7 6.2-64.4 6.8-43 1.4-77.8-1.4-115.5-9.3-22.5-4.7-53.7-13.6-67-19.1-4.7-2-11.5-4.6-15.1-5.9-7.9-2.7-48-21.7-52.9-24.9-4.7-3.2-16.4-10.2-22.5-13.6-2.7-1.5-10.8-6.8-18-11.9-7.1-5-15.6-10.9-18.7-13.1-5.5-3.9-8.3-6.2-13.8-11.4-1.4-1.3-5.2-4.5-8.5-7.2-14.5-11.6-44.1-42.1-58.1-60-3.8-4.8-8.4-10.5-10.3-12.6-1.9-2.1-3.2-4-3-4.3 0.3-0.2 8.5-4.2 18.4-9 9.9-4.7 18.7-8.9 19.5-9.4 0.9-0.5 10.3-5.3 20.9-10.7 10.6-5.5 20.1-10.4 21-10.9 0.9-0.6 5.2-3 9.6-5.3 4.4-2.3 10.5-5.6 13.5-7.3 3-1.8 8-4.6 11.2-6.3 8.2-4.6 36.8-21.9 47.8-29.1 5.2-3.4 14.9-9.7 21.5-14 10.4-6.8 20.4-14 25.5-18.3 0.8-0.7 4.8-4 8.9-7.5 19.1-16.2 26.4-20.7 36.6-22.6 11.6-2.2 20.4-1.1 30.3 3.6 6.8 3.2 20.9 17 26.9 26.3 2.3 3.6 5.1 7.6 6.1 9 5.1 6.8 17.5 25.6 22.7 34.5 3.2 5.5 7.8 13.5 10.3 17.7 9.2 15.6 19.6 22.4 33.4 21.7 9.1-0.5 16.9-4.1 23.8-11 5.9-5.9 9.1-11.2 13.1-21.6 5.6-14.5 7.8-30.5 10.4-76.6 1.2-22.4 1.8-27.6 3.5-31.3 3.1-7.1 5.7-10.1 11.2-12.8 6.4-3.2 14.3-3.5 20.5-0.7zm408.3 401.1h32v16h-32z"/></svg>
