<?xml version="1.0" standalone="no"?>
<!DOCTYPE svg PUBLIC "-//W3C//DTD SVG 20010904//EN"
 "http://www.w3.org/TR/2001/REC-SVG-20010904/DTD/svg10.dtd">
<svg version="1.0" xmlns="http://www.w3.org/2000/svg"
 width="1024.000000pt" height="1024.000000pt" viewBox="0 0 1024.000000 1024.000000"
 preserveAspectRatio="xMidYMid meet">

<g transform="translate(0.000000,1024.000000) scale(0.100000,-0.100000)"
fill="#000000" stroke="none">
<path d="M4675 9804 c-295 -29 -448 -49 -535 -69 -14 -3 -50 -10 -80 -16 -349
-67 -819 -225 -1136 -382 -38 -19 -94 -47 -124 -62 -30 -15 -64 -32 -75 -38
-11 -7 -56 -32 -100 -56 -163 -90 -337 -209 -602 -410 -112 -85 -359 -312
-453 -415 -102 -113 -232 -262 -290 -331 -247 -299 -477 -681 -660 -1095 -23
-52 -48 -108 -56 -125 -83 -180 -247 -807 -269 -1030 -4 -38 -11 -89 -16 -112
-22 -102 -31 -359 -25 -688 3 -187 10 -369 15 -405 6 -36 17 -113 25 -171 15
-111 36 -222 61 -324 122 -514 194 -721 381 -1100 79 -162 117 -232 134 -249
7 -7 46 14 127 69 65 43 143 94 173 113 30 20 66 45 80 57 14 12 42 32 63 44
45 25 71 45 255 202 286 243 599 575 797 845 227 310 314 442 485 740 48 83
300 586 300 598 0 4 33 79 74 169 40 89 87 198 104 242 17 44 55 130 85 190
93 186 239 317 426 383 l76 27 1020 3 c907 3 1030 1 1110 -13 50 -9 106 -25
125 -35 19 -11 50 -26 69 -35 76 -36 164 -114 239 -212 30 -40 142 -249 142
-267 0 -10 81 -201 120 -281 16 -33 38 -85 50 -115 25 -64 238 -497 288 -585
19 -33 50 -89 70 -125 19 -36 49 -85 66 -110 17 -25 39 -63 49 -85 10 -22 27
-49 38 -61 11 -12 34 -44 52 -72 60 -95 90 -137 221 -311 72 -96 146 -194 164
-217 18 -24 36 -44 41 -44 5 0 18 -15 28 -33 44 -74 403 -435 579 -582 26 -22
66 -56 88 -76 58 -51 261 -194 396 -279 174 -110 261 -162 265 -158 11 13 184
355 226 448 165 367 283 760 349 1165 97 595 91 1042 -24 1690 -2 11 -14 58
-26 105 -12 47 -27 105 -32 130 -16 71 -96 337 -127 425 -75 206 -224 527
-331 710 -29 50 -60 104 -71 122 -85 149 -211 326 -393 557 -59 74 -246 277
-351 381 -243 239 -560 488 -820 646 -38 23 -94 57 -122 76 -98 62 -424 220
-618 300 -361 148 -842 271 -1245 319 -128 15 -770 28 -875 18z m3165 -1574
c324 -51 580 -248 679 -522 56 -156 41 -344 -39 -468 -18 -28 -45 -57 -61 -65
-24 -13 -136 -15 -745 -15 -717 0 -717 0 -752 22 -105 65 -163 294 -117 468
41 160 155 318 307 429 55 39 170 95 252 121 115 37 341 51 476 30z"/>
<path d="M5644 4167 c-104 -50 -140 -127 -149 -322 -20 -437 -52 -718 -96
-845 -72 -212 -177 -326 -332 -365 -80 -19 -133 -12 -224 31 -73 35 -144 126
-244 314 -44 81 -146 242 -224 350 -11 15 -46 65 -77 111 -61 90 -180 217
-244 261 -90 62 -265 82 -388 44 -50 -15 -187 -101 -241 -152 -71 -66 -252
-209 -328 -260 -45 -30 -102 -68 -127 -84 -25 -17 -67 -45 -95 -62 -27 -17
-93 -59 -145 -93 -52 -34 -113 -72 -135 -84 -55 -30 -99 -56 -177 -107 -37
-24 -70 -44 -74 -44 -3 0 -38 -19 -77 -42 -85 -49 -147 -84 -202 -111 -22 -11
-57 -31 -78 -44 -39 -24 -505 -259 -704 -354 -99 -47 -111 -56 -100 -70 36
-50 192 -238 257 -310 123 -137 371 -386 425 -426 27 -21 70 -57 95 -79 66
-61 188 -153 333 -252 125 -85 176 -117 314 -196 37 -22 82 -49 98 -60 17 -12
64 -38 105 -58 249 -121 352 -168 405 -186 33 -11 83 -30 110 -42 202 -88 627
-201 980 -259 400 -67 1004 -65 1440 4 337 53 800 185 1063 303 50 23 95 42
98 42 27 0 357 171 529 273 153 92 198 120 329 214 61 43 170 126 176 133 3 3
55 46 115 95 128 103 432 405 556 550 109 129 210 258 283 365 32 47 67 94 78
106 l19 21 -228 6 c-450 12 -755 70 -1113 212 -231 92 -500 249 -705 412 -44
35 -107 85 -140 111 -120 94 -607 584 -878 883 -76 84 -190 110 -283 66z"/>
<path d="M10080 80 l0 -80 80 0 80 0 0 80 0 80 -80 0 -80 0 0 -80z"/>
</g>
</svg>
